<?xml version="1.0" encoding="UTF-8"?>
<svg xmlns="http://www.w3.org/2000/svg" xmlns:xlink="http://www.w3.org/1999/xlink" version="1.1" viewBox="0 0 600 600">
  <defs>
    <style>
      .cls-1 {
        fill: none;
      }

      .cls-2 {
        fill: #f9ab00;
      }

      .cls-3 {
        fill: #f8d8d8;
      }

      .cls-4 {
        fill: #e6e6e6;
      }

      .cls-5 {
        fill: #4285f4;
      }

      .cls-6 {
        fill: #1e1e1e;
      }

      .cls-7 {
        fill: #ff7daf;
      }

      .cls-8 {
        fill: #34a853;
      }

      .cls-9 {
        fill: #fff;
      }

      .cls-10 {
        fill: #ea4335;
      }

      .cls-11 {
        fill: #f0f0f0;
      }

      .cls-12 {
        fill: #cbcbcb;
      }

      .cls-13 {
        filter: url(#AI_Shadow_3);
        opacity: .2;
      }

      .cls-14 {
        clip-path: url(#clippath);
      }
    </style>
    <filter id="AI_Shadow_3" x="-15%" y="-15%" width="140%" height="130%">
      <feGaussianBlur in="SourceAlpha" result="blur" stdDeviation="10"/>
      <feOffset dx="0" dy="5" in="blur" result="offsetBlurredAlpha"/>
      <feMerge>
        <feMergeNode in="offsetBlurredAlpha"/>
        <feMergeNode in="SourceGraphic"/>
      </feMerge>
    </filter>
    <clipPath id="clippath">
      <path class="cls-1" d="M300,73.6c30.6,0,60.2,6,88.1,17.8,27,11.4,51.2,27.7,72,48.5,20.8,20.8,37.1,45,48.5,72,11.8,27.9,17.8,57.6,17.8,88.1s-6,60.2-17.8,88.1c-11.4,27-27.7,51.2-48.5,72-20.8,20.8-45,37.1-72,48.5-27.9,11.8-57.6,17.8-88.1,17.8s-60.2-6-88.1-17.8c-27-11.4-51.2-27.7-72-48.5-20.8-20.8-37.1-45-48.5-72-11.8-27.9-17.8-57.6-17.8-88.1s6-60.2,17.8-88.1c11.4-27,27.7-51.2,48.5-72,20.8-20.8,45-37.1,72-48.5,27.9-11.8,57.5-17.8,88.1-17.8Z"/>
    </clipPath>
  </defs>
  <!-- Generator: Adobe Illustrator 28.7.1, SVG Export Plug-In . SVG Version: 1.2.0 Build 142)  -->
  <g>
    <g id="Layer_1">
      <g>
        <g id="svg_shadow" class="cls-13">
          <circle class="cls-12" cx="300" cy="300" r="239.7"/>
        </g>
        <g id="base">
          <g>
            <circle class="cls-4" cx="300.5" cy="300" r="241.5"/>
            <path class="cls-9" d="M300.5,73.5c30.6,0,60.2,6,88.2,17.8,27,11.4,51.2,27.7,72,48.5s37.1,45,48.5,72c11.8,27.9,17.8,57.6,17.8,88.2s-6,60.2-17.8,88.2c-11.4,27-27.7,51.2-48.5,72s-45,37.1-72,48.5c-27.9,11.8-57.6,17.8-88.2,17.8s-60.2-6-88.2-17.8c-27-11.4-51.2-27.7-72-48.5-20.8-20.8-37.1-45-48.5-72-11.8-27.9-17.8-57.6-17.8-88.2s6-60.2,17.8-88.2c11.4-27,27.7-51.2,48.5-72,20.8-20.8,45-37.1,72-48.5,27.9-11.8,57.6-17.8,88.2-17.8M300.5,58.5c-133.4,0-241.5,108.1-241.5,241.5s108.1,241.5,241.5,241.5,241.5-108.1,241.5-241.5S433.9,58.5,300.5,58.5h0Z"/>
          </g>
        </g>
      </g>
    </g>
    <g id="Atttendee">
      <g class="cls-14">
        <circle class="cls-3" cx="300" cy="300" r="241.4"/>
        <g>
          <g>
            <rect class="cls-10" x="230" y="158.3" width="66.2" height="28.6" rx="14.3" ry="14.3" transform="translate(-51.3 186) rotate(-35.7)"/>
            <path class="cls-6" d="M247.8,199.1c-4.8,0-9.6-2.2-12.7-6.5-2.4-3.4-3.4-7.5-2.7-11.6.7-4.1,2.9-7.7,6.3-10.1l30.6-22c3.4-2.4,7.5-3.4,11.6-2.7,4.1.7,7.7,2.9,10.1,6.3h0c2.4,3.4,3.4,7.5,2.7,11.6-.7,4.1-2.9,7.7-6.3,10.1l-30.6,22c-2.7,2-5.9,2.9-9.1,2.9ZM278.3,148.5c-2.7,0-5.3.8-7.6,2.5l-30.6,22c-2.8,2-4.7,5.1-5.3,8.5-.6,3.4.2,6.9,2.3,9.7,4.2,5.8,12.4,7.2,18.2,3l30.6-22c2.8-2,4.7-5.1,5.3-8.5.6-3.4-.2-6.9-2.3-9.7h0c-2-2.8-5.1-4.7-8.5-5.3-.7-.1-1.4-.2-2.1-.2Z"/>
          </g>
          <g>
            <rect class="cls-5" x="248.8" y="161.4" width="28.6" height="66.2" rx="14.3" ry="14.3" transform="translate(-48.4 294.6) rotate(-54.3)"/>
            <path class="cls-6" d="M278.3,221.1c-3.2,0-6.4-1-9-2.9l-30.6-22c-7-5-8.6-14.7-3.6-21.7,2.4-3.4,6-5.6,10.1-6.3,4.1-.7,8.2.3,11.6,2.7l30.6,22c3.4,2.4,5.6,6,6.3,10.1.7,4.1-.3,8.2-2.7,11.6-2.4,3.4-6,5.6-10.1,6.3-.8.1-1.7.2-2.5.2ZM247.8,170.5c-.7,0-1.4,0-2.1.2-3.4.6-6.5,2.4-8.5,5.3-4.2,5.8-2.9,14,3,18.2l30.6,22c2.8,2,6.3,2.8,9.7,2.3,3.4-.6,6.5-2.4,8.5-5.3,2-2.8,2.8-6.3,2.3-9.7-.6-3.4-2.4-6.5-5.3-8.5l-30.6-22c-2.2-1.6-4.9-2.5-7.6-2.5Z"/>
          </g>
          <g>
            <rect class="cls-2" x="303.8" y="180.2" width="66.2" height="28.6" rx="14.3" ry="14.3" transform="translate(-50.2 233.2) rotate(-35.7)"/>
            <path class="cls-6" d="M321.7,221.1c-.8,0-1.7,0-2.5-.2-4.1-.7-7.7-2.9-10.1-6.3-5-7-3.4-16.7,3.6-21.7l30.6-22c3.4-2.4,7.5-3.4,11.6-2.7,4.1.7,7.7,2.9,10.1,6.3,2.4,3.4,3.4,7.5,2.7,11.6-.7,4.1-2.9,7.7-6.3,10.1l-30.6,22c-2.7,1.9-5.8,2.9-9,2.9ZM352.2,170.5c-2.7,0-5.3.8-7.6,2.5l-30.6,22c-5.8,4.2-7.2,12.4-3,18.2,2,2.8,5.1,4.7,8.5,5.3,3.4.6,6.9-.2,9.7-2.3l30.6-22c2.8-2,4.7-5.1,5.3-8.5.6-3.4-.2-6.9-2.3-9.7-2-2.8-5.1-4.7-8.5-5.3-.7-.1-1.4-.2-2.1-.2Z"/>
          </g>
          <g>
            <rect class="cls-8" x="322.6" y="139.4" width="28.6" height="66.2" rx="14.3" ry="14.3" transform="translate(.2 345.4) rotate(-54.3)"/>
            <path class="cls-6" d="M352.2,199.1c-3.1,0-6.3-.9-9.1-2.9l-30.6-22c-7-5-8.6-14.7-3.6-21.7,2.4-3.4,6-5.6,10.1-6.3,4.1-.7,8.2.3,11.6,2.7l30.6,22c3.4,2.4,5.6,6,6.3,10.1.7,4.1-.3,8.2-2.7,11.6-3,4.2-7.8,6.5-12.7,6.5ZM321.7,148.5c-.7,0-1.4,0-2.1.2-3.4.6-6.5,2.4-8.5,5.3h0c-4.2,5.8-2.9,14,3,18.2l30.6,22c5.8,4.2,14,2.9,18.2-3,2-2.8,2.8-6.3,2.3-9.7-.6-3.4-2.4-6.5-5.3-8.5l-30.6-22c-2.2-1.6-4.9-2.5-7.6-2.5Z"/>
          </g>
        </g>
        <g>
          <path class="cls-6" d="M121.7,312.8v-68.9h23.3c7.3,0,13.6,1.5,18.9,4.4,5.3,2.9,9.4,7,12.2,12.1,2.9,5.2,4.3,11.1,4.3,17.9s-1.4,12.8-4.3,18c-2.9,5.2-6.9,9.2-12.2,12.1-5.3,2.9-11.6,4.3-18.9,4.3h-23.3ZM134.7,300.5h9.7c5.1,0,9.3-.9,12.7-2.7,3.4-1.8,5.9-4.4,7.6-7.7,1.7-3.3,2.5-7.2,2.5-11.6s-.9-8.4-2.5-11.7c-1.7-3.3-4.2-5.9-7.6-7.7-3.4-1.8-7.6-2.7-12.7-2.7h-9.7v44.2Z"/>
          <path class="cls-6" d="M212.3,314.3c-4.9,0-9.3-1.1-13.2-3.4-3.9-2.2-6.9-5.3-9.1-9.2-2.2-3.9-3.3-8.4-3.3-13.4s1.1-9,3.3-13c2.2-4,5.2-7.2,8.9-9.6,3.8-2.4,8.1-3.6,13-3.6s9.7,1.1,13.3,3.4c3.6,2.2,6.3,5.2,8.2,9,1.9,3.8,2.8,7.9,2.8,12.5s0,1.9,0,2.6c0,.7-.1,1.3-.2,1.6h-42.1v-8.9h30.3c0-1.1-.4-2.2-1-3.4-.6-1.2-1.4-2.2-2.4-3.2-1-1-2.3-1.7-3.7-2.4-1.4-.6-3.1-.9-5-.9s-4.7.6-6.7,1.9c-2,1.3-3.6,3.1-4.8,5.3-1.2,2.3-1.7,5-1.7,8.1s.6,6,1.8,8.3c1.2,2.3,2.9,4,5,5.2,2.1,1.2,4.4,1.8,7,1.8s5.5-.7,7.6-2c2.1-1.3,3.7-3,4.8-5l10.2,5c-2.3,4-5.3,7.2-9,9.6-3.7,2.3-8.3,3.5-13.8,3.5Z"/>
          <path class="cls-6" d="M257.2,312.8l-20.8-49.1h14.3l12.4,31.9h.8l12.6-31.9h14.1l-21,49.1h-12.5Z"/>
          <path class="cls-6" d="M296.9,312.8v-68.9h43.7v12.3h-30.7v56.6h-13ZM304.1,285.3v-12.3h33.4v12.3h-33.4Z"/>
          <path class="cls-6" d="M370,314.3c-4.9,0-9.3-1.1-13.2-3.4-3.9-2.2-6.9-5.3-9.1-9.2-2.2-3.9-3.3-8.4-3.3-13.4s1.1-9,3.3-13c2.2-4,5.2-7.2,8.9-9.6,3.8-2.4,8.1-3.6,13-3.6s9.7,1.1,13.3,3.4c3.6,2.2,6.3,5.2,8.2,9,1.9,3.8,2.8,7.9,2.8,12.5s0,1.9,0,2.6c0,.7-.1,1.3-.2,1.6h-42.1v-8.9h30.3c0-1.1-.4-2.2-1-3.4-.6-1.2-1.4-2.2-2.4-3.2-1-1-2.3-1.7-3.7-2.4-1.4-.6-3.1-.9-5-.9s-4.7.6-6.7,1.9c-2,1.3-3.6,3.1-4.8,5.3-1.2,2.3-1.7,5-1.7,8.1s.6,6,1.8,8.3c1.2,2.3,2.9,4,5,5.2,2.1,1.2,4.4,1.8,7,1.8s5.5-.7,7.6-2c2.1-1.3,3.7-3,4.8-5l10.2,5c-2.3,4-5.3,7.2-9,9.6-3.7,2.3-8.3,3.5-13.8,3.5Z"/>
          <path class="cls-6" d="M420.2,314.3c-4.2,0-7.8-.6-10.8-1.8-3-1.2-5.4-2.8-7.3-4.8-1.9-2-3.2-4.2-4.1-6.5l11.3-4.9c1.1,2.3,2.6,4.1,4.4,5.2,1.9,1.2,4,1.8,6.5,1.8s3.9-.3,5.6-1c1.7-.7,2.5-1.9,2.5-3.7s-.4-2.3-1.3-3c-.9-.7-1.9-1.3-3.2-1.7-1.3-.4-2.6-.8-3.9-1l-5.8-1.3c-2.4-.5-4.6-1.4-6.7-2.7-2.1-1.3-3.8-3-5.1-5-1.3-2-2-4.3-2-7s.8-5.5,2.5-7.7c1.7-2.2,4-3.9,6.9-5.1,2.9-1.2,6.1-1.8,9.7-1.8s6.2.4,8.8,1.2c2.6.8,4.9,1.9,6.8,3.5,1.9,1.6,3.5,3.6,4.6,6l-10.8,4.7c-1-1.9-2.4-3.3-4-4-1.6-.8-3.4-1.2-5.2-1.2s-3.9.4-5.2,1.3c-1.3.8-1.9,1.8-1.9,3s.6,2.3,1.9,3.2c1.3.9,2.8,1.6,4.6,2l7.2,1.7c4.9,1.2,8.5,3,11,5.6,2.5,2.6,3.7,5.6,3.7,9.2s-.9,6-2.8,8.4c-1.9,2.4-4.4,4.3-7.5,5.6-3.1,1.3-6.6,2-10.5,2Z"/>
          <path class="cls-6" d="M444.7,274.5v-10.8h9v10.8h-9ZM469.5,313.6c-5.1,0-9-1.5-11.9-4.4-2.9-2.9-4.3-6.9-4.3-12.1v-47.2h12.6v44.9c0,2.4.5,4.1,1.4,5.2,1,1.1,2.5,1.7,4.7,1.7s2-.1,2.9-.4c.9-.3,2-.8,3.4-1.7v12.3c-1.4.5-2.8.9-4.3,1.2-1.4.3-2.9.4-4.5.4ZM465.4,274.5v-10.8h12.5v10.8h-12.5Z"/>
        </g>
        <g>
          <rect class="cls-11" x="219.4" y="346.8" width="161.1" height="93.8" rx="46.9" ry="46.9"/>
          <path class="cls-6" d="M333.7,441.8h-67.3c-26.6,0-48.2-21.6-48.2-48.2s21.6-48.2,48.2-48.2h67.3c26.6,0,48.2,21.6,48.2,48.2s-21.6,48.2-48.2,48.2ZM266.3,348c-25.2,0-45.7,20.5-45.7,45.7s20.5,45.7,45.7,45.7h67.3c25.2,0,45.7-20.5,45.7-45.7s-20.5-45.7-45.7-45.7h-67.3Z"/>
        </g>
        <g>
          <rect class="cls-7" x="7.9" y="346.8" width="211.2" height="93.8" rx="46.9" ry="46.9"/>
          <path class="cls-6" d="M172.2,441.8H54.8c-26.6,0-48.2-21.6-48.2-48.2s21.6-48.2,48.2-48.2h117.4c26.6,0,48.2,21.6,48.2,48.2s-21.6,48.2-48.2,48.2ZM54.8,348c-25.2,0-45.7,20.5-45.7,45.7s20.5,45.7,45.7,45.7h117.4c25.2,0,45.7-20.5,45.7-45.7s-20.5-45.7-45.7-45.7H54.8Z"/>
        </g>
        <g>
          <path class="cls-6" d="M256.5,408.2v-3.5c0,0,.3-.3.7-.8s.9-1,1.6-1.7c.6-.7,1.3-1.4,2-2.3.7-.8,1.5-1.6,2.2-2.4s1.4-1.6,2.1-2.3c.6-.7,1.1-1.2,1.5-1.6,1.3-1.4,2.2-2.6,2.9-3.7.6-1.1.9-2.2.9-3.4s-.2-1.7-.7-2.5-1.1-1.4-1.9-1.8-1.7-.7-2.8-.7-1.9.2-2.6.7c-.8.4-1.4,1-1.8,1.6-.5.6-.7,1.2-.9,1.8l-3.2-1.3c.2-.6.5-1.2.9-1.9.4-.7,1-1.4,1.7-2,.7-.7,1.6-1.2,2.6-1.6,1-.4,2.2-.6,3.5-.6s3.4.4,4.7,1.2c1.3.8,2.3,1.8,3,3.1.7,1.2,1.1,2.6,1.1,4s-.3,2.4-.8,3.6c-.5,1.2-1.1,2.3-1.9,3.3-.7,1-1.5,1.9-2.1,2.6-.4.4-.8.9-1.5,1.5-.6.7-1.3,1.4-2,2.2-.7.8-1.4,1.5-2.1,2.3-.7.7-1.3,1.4-1.8,1.9-.5.5-.9.9-1,1.1h13.4v3.3h-17.7Z"/>
          <path class="cls-6" d="M288.9,408.8c-1.7,0-3.3-.4-4.6-1.2-1.4-.8-2.5-1.9-3.5-3.3-1-1.4-1.7-3-2.3-4.9-.5-1.9-.8-3.9-.8-6s.3-4.1.8-6c.5-1.9,1.3-3.5,2.3-4.9,1-1.4,2.2-2.5,3.5-3.3,1.4-.8,2.9-1.2,4.6-1.2s3.3.4,4.7,1.2c1.4.8,2.6,1.9,3.5,3.3,1,1.4,1.7,3,2.3,4.9s.8,3.9.8,6-.3,4.1-.8,6c-.5,1.9-1.3,3.5-2.3,4.9-1,1.4-2.2,2.5-3.5,3.3-1.4.8-2.9,1.2-4.7,1.2ZM288.9,405.5c1.6,0,3-.5,4.1-1.6,1.1-1.1,2-2.5,2.6-4.3.6-1.8.9-3.8.9-6.1s-.3-4.3-.9-6.1c-.6-1.8-1.5-3.2-2.6-4.3-1.1-1.1-2.5-1.6-4.1-1.6s-2.9.5-4.1,1.6c-1.1,1.1-2,2.5-2.6,4.3-.6,1.8-.9,3.8-.9,6.1s.3,4.3.9,6.1c.6,1.8,1.5,3.3,2.6,4.3s2.5,1.6,4.1,1.6Z"/>
          <path class="cls-6" d="M303.1,408.2v-3.5c0,0,.3-.3.7-.8s.9-1,1.6-1.7c.6-.7,1.3-1.4,2-2.3.7-.8,1.5-1.6,2.2-2.4s1.4-1.6,2.1-2.3c.6-.7,1.1-1.2,1.5-1.6,1.3-1.4,2.2-2.6,2.9-3.7.6-1.1.9-2.2.9-3.4s-.2-1.7-.7-2.5-1.1-1.4-1.9-1.8-1.7-.7-2.8-.7-1.9.2-2.6.7c-.8.4-1.4,1-1.8,1.6-.5.6-.7,1.2-.9,1.8l-3.2-1.3c.2-.6.5-1.2.9-1.9.4-.7,1-1.4,1.7-2s1.6-1.2,2.6-1.6c1-.4,2.2-.6,3.5-.6s3.4.4,4.7,1.2c1.3.8,2.3,1.8,3,3.1.7,1.2,1.1,2.6,1.1,4s-.3,2.4-.8,3.6c-.5,1.2-1.1,2.3-1.9,3.3-.7,1-1.5,1.9-2.1,2.6-.4.4-.8.9-1.5,1.5-.6.7-1.3,1.4-2,2.2-.7.8-1.4,1.5-2.1,2.3-.7.7-1.3,1.4-1.8,1.9-.5.5-.9.9-1,1.1h13.4v3.3h-17.7Z"/>
          <path class="cls-6" d="M334,408.8c-1.3,0-2.5-.3-3.9-.8s-2.5-1.4-3.5-2.5c-1-1.1-1.8-2.6-2.2-4.4l3.1-1.2c.4,1.7,1.2,3,2.3,4.1,1.1,1.1,2.4,1.6,4.1,1.6s3.4-.6,4.6-1.7c1.2-1.2,1.8-2.7,1.8-4.5s-.3-2.3-.8-3.3c-.5-1-1.3-1.7-2.2-2.3-.9-.5-2-.8-3.3-.8s-2,.2-2.9.7c-.9.5-1.7,1.1-2.2,1.9l-3.5-1.4,1.9-15.3h14.6v3.3h-11.8l-1.2,9.4h.2c.7-.5,1.4-1,2.4-1.3.9-.4,2-.5,3.2-.5s3.2.4,4.6,1.2c1.4.8,2.5,1.9,3.3,3.4.8,1.4,1.3,3.1,1.3,4.9s-.4,3.4-1.3,4.9c-.8,1.5-2,2.6-3.5,3.5s-3.1,1.3-5,1.3Z"/>
        </g>
        <g>
          <rect class="cls-10" x="380.5" y="346.8" width="94" height="94" rx="47" ry="47"/>
          <path class="cls-6" d="M427.5,442c-26.6,0-48.3-21.7-48.3-48.3s21.7-48.3,48.3-48.3,48.3,21.7,48.3,48.3-21.7,48.3-48.3,48.3ZM427.5,348c-25.2,0-45.8,20.5-45.8,45.8s20.5,45.8,45.8,45.8,45.8-20.5,45.8-45.8-20.5-45.8-45.8-45.8Z"/>
        </g>
        <g>
          <rect class="cls-7" x="474.8" y="346.8" width="94" height="94" rx="47" ry="47"/>
          <path class="cls-6" d="M521.8,442c-26.6,0-48.3-21.7-48.3-48.3s21.7-48.3,48.3-48.3,48.3,21.7,48.3,48.3-21.7,48.3-48.3,48.3ZM521.8,348c-25.2,0-45.8,20.5-45.8,45.8s20.5,45.8,45.8,45.8,45.8-20.5,45.8-45.8-20.5-45.8-45.8-45.8Z"/>
        </g>
      </g>
    </g>
  </g>
</svg>